<svg version="1.1"
	 xmlns="http://www.w3.org/2000/svg"
	 x="0px" y="0px" width="126px" height="131px" viewBox="0 0 126 131" 
	 xml:space="preserve">

<path id="XMLID_14_" fill="#D42A1B" d="M82.034,40.921c-0.02,0.085-0.034,0.169-0.059,0.254c-0.672,2.37-2.859,4.024-5.319,4.024
	h-0.001c-0.51,0-1.018-0.071-1.511-0.211c-2.936-0.832-4.646-3.897-3.813-6.832c0.429-1.512,1.477-2.731,2.817-3.417
	c-1.069-0.934-2.082-1.865-3.032-2.777c-0.765,0.502-1.674,0.792-2.631,0.792c-0.443,0-0.885-0.062-1.314-0.183
	c-2.552-0.724-4.04-3.389-3.315-5.941c0.162-0.573,0.43-1.096,0.773-1.556c-1.757-2.067-2.726-3.4-2.726-3.4
	c-0.945,1.696-4.064,5.104-8.067,9.136c-0.661,1.864-0.827,3.766,0.361,5.063c3.131,3.417,6.02,6.31,3.131,8.414
	c-2.509,1.827-2.295,14.757,19.875,16.407c11.553-2.239,20.33-5.101,20.33-5.101C99.448,53.084,90.242,46.914,82.034,40.921z"/>
<path id="XMLID_11_" fill="#99241B" d="M77.203,60.695c-16.892,3.271-39.72,5.205-49.728-5.101c0,0,16.086-14.437,26.361-24.784
	c-0.661,1.864-0.827,3.766,0.361,5.063c3.131,3.417,6.02,6.31,3.131,8.414C54.819,46.115,55.033,59.045,77.203,60.695z"/>
<path id="XMLID_10_" fill="#EE7E1C" d="M50.546,76.078c-16.892,3.27-39.72,5.205-49.729-5.102c0,0,16.087-14.437,26.361-24.783
	c-0.661,1.864-0.826,3.766,0.361,5.063c3.131,3.417,6.021,6.31,3.131,8.414C28.162,61.498,28.376,74.428,50.546,76.078z"/>
<path id="XMLID_9_" fill="#F7AB15" d="M70.875,70.977c0,0-8.776,2.862-20.329,5.102c-22.17-1.65-22.384-14.581-19.875-16.407
	c2.89-2.104,0-4.997-3.131-8.414c-1.188-1.297-1.022-3.2-0.361-5.063c4.003-4.032,7.122-7.44,8.067-9.136
	c0,0,5.537,7.625,14.204,14.726C58.115,58.881,73.283,67.821,70.875,70.977z"/>
<path id="XMLID_5_" fill="#5A601F" d="M103.794,76.822c-16.892,3.271-39.72,5.205-49.729-5.101c0,0,16.087-14.437,26.361-24.783
	c-0.661,1.863-0.827,3.766,0.361,5.063c3.131,3.417,6.02,6.31,3.131,8.414C81.41,62.242,81.624,75.173,103.794,76.822z"/>
<path id="XMLID_2_" fill="#7C8D27" d="M124.123,71.722c0,0-8.776,2.862-20.329,5.101c-22.17-1.649-22.384-14.58-19.875-16.406
	c2.889-2.104,0-4.997-3.131-8.414c-1.188-1.297-1.022-3.2-0.361-5.063c4.002-4.032,7.122-7.441,8.066-9.136
	c0,0,5.537,7.625,14.204,14.725C111.363,59.626,126.531,68.566,124.123,71.722z"/>
<path fill="#99241B" d="M81.764,0.111c-1.548-0.438-3.158,0.46-3.598,2.008c-0.438,1.548,0.461,3.158,2.008,3.597
	c1.548,0.439,3.158-0.46,3.598-2.008C84.21,2.16,83.312,0.55,81.764,0.111z M75.736,10.689c0.342-1.207-0.358-2.462-1.565-2.804
	c-1.206-0.342-2.462,0.359-2.804,1.565s0.358,2.462,1.565,2.804C74.139,12.597,75.395,11.896,75.736,10.689z M85.07,15.153
	c1.207,0.342,2.462-0.358,2.804-1.565c0.343-1.207-0.358-2.462-1.564-2.804c-1.207-0.342-2.462,0.359-2.804,1.565
	C83.163,13.556,83.864,14.812,85.07,15.153z M78.684,16.174c-1.573-0.446-3.21,0.468-3.656,2.041s0.468,3.21,2.041,3.657
	c1.573,0.446,3.211-0.468,3.656-2.041C81.171,18.257,80.258,16.62,78.684,16.174z M69.292,25.094
	c-1.573-0.446-3.21,0.467-3.656,2.041c-0.446,1.573,0.468,3.21,2.041,3.656s3.21-0.468,3.656-2.041S70.865,25.54,69.292,25.094z
	 M86.73,23.883c-1.573-0.446-3.21,0.468-3.656,2.041c-0.446,1.574,0.468,3.21,2.041,3.657s3.21-0.468,3.656-2.041
	S88.304,24.329,86.73,23.883z M77.658,36.124c-1.957-0.555-3.992,0.582-4.547,2.538c-0.555,1.956,0.581,3.992,2.538,4.546
	c1.956,0.555,3.991-0.582,4.546-2.538C80.75,38.714,79.614,36.679,77.658,36.124z"/>
<linearGradient id="g-2247-XMLID_15_" x1="0%" y1="0%" x2="100%" y2="0%" gradientTransform="rotate(90)"><stop offset="0%" style="stop-color:#676666"/>
<stop offset="100%" style="stop-color:#000000"/>
</linearGradient>
<path id="XMLID_1_" fill="url(#g-2247-XMLID_15_)" d="M122.326,70.924c-12.388,0.002-24.776,0.014-37.164,0.018
	c-9.837,0.004-19.675-0.06-29.511,0.044c-2.194,0.022-3.699-0.695-5.135-2.304c-8.014-8.974-16.13-17.857-24.152-26.825
	c-0.814-0.91-1.234-2.173-1.836-3.272c-0.342,0.341-0.684,0.681-1.025,1.022c-1.184,0.865-2.368,1.73-4.162,3.04
	c1.284-2.666,2.371-4.459,3.036-6.397c1.746-5.084-0.55-8.947-5.771-10.019c-6.258-1.284-13.622,3.729-15.987,10.883
	c-1.892,5.724,0.633,9.579,6.612,9.765c2.019,0.063,3.227,0.765,4.336,2.409c4.151,6.156,8.45,12.212,12.669,18.323
	c0.599,0.868,1.058,1.833,1.918,3.345c-8.872,0-16.98,0-25.341,0c-0.219,0,0.769,8.91,0.905,9.729
	c0.521,3.138,1.272,6.237,2.271,9.258c0.953,2.879,2.067,5.855,3.572,8.498c1.77,3.109,4.338,5.958,6.917,8.424
	c6.005,5.742,13.042,10.406,20.796,13.716c-2.952,0.941-4.658,2.049-4.658,3.234c0,3.417,14.137,6.187,31.576,6.187
	s31.577-2.77,31.577-6.187c0-1.167-1.652-2.259-4.519-3.19c5.871-2.481,11.454-5.725,16.663-9.622
	c4.75-3.554,8.792-8.052,11.831-13.147c0.62-1.041,1.198-2.105,1.732-3.192c3.501-7.123,4.773-15.703,4.905-23.565
	C123.342,71.006,122.834,70.924,122.326,70.924z"/>
</svg>
